<?xml version="1.0" encoding="UTF-8"?>
<svg xmlns="http://www.w3.org/2000/svg" viewBox="0 0 500 400" width="500mm" height="400mm">
  <rect width="500" height="400" fill="#1a1a1a"/>
  <rect x="1" y="1" width="498" height="398" fill="none" stroke="#333333" stroke-width="0.5"/>
  <line x1="0" y1="8" x2="0" y2="0" stroke="#444444" stroke-width="1"/>
  <line x1="0" y1="0" x2="8" y2="0" stroke="#444444" stroke-width="1"/>
  <line x1="500" y1="8" x2="500" y2="0" stroke="#444444" stroke-width="1"/>
  <line x1="492" y1="0" x2="500" y2="0" stroke="#444444" stroke-width="1"/>
  <line x1="0" y1="392" x2="0" y2="400" stroke="#444444" stroke-width="1"/>
  <line x1="0" y1="400" x2="8" y2="400" stroke="#444444" stroke-width="1"/>
  <line x1="500" y1="392" x2="500" y2="400" stroke="#444444" stroke-width="1"/>
  <line x1="492" y1="400" x2="500" y2="400" stroke="#444444" stroke-width="1"/>
  <g transform="translate(341.435,377.666)">
    <path d="M9.04113 -6.720840000000001H6.214110000000001V0.0H1.6535400000000002V-18.722340000000003H9.04113Q11.281410000000001 -18.722340000000003 12.828270000000002 -17.94891Q14.375130000000002 -17.17548 15.148560000000002 -15.81531Q15.921990000000001 -14.455140000000002 15.921990000000001 -12.694920000000002Q15.921990000000001 -11.068050000000001 15.17523 -9.721215Q14.42847 -8.37438 12.881610000000002 -7.547610000000001Q11.334750000000001 -6.720840000000001 9.04113 -6.720840000000001ZM11.281410000000001 -12.694920000000002Q11.281410000000001 -13.81506 10.64133 -14.42847Q10.00125 -15.04188 8.694420000000001 -15.04188H6.214110000000001V-10.34796H8.694420000000001Q10.00125 -10.34796 10.64133 -10.96137Q11.281410000000001 -11.57478 11.281410000000001 -12.694920000000002Z M27.52344 -15.04188V-10.21461H26.26995Q24.56307 -10.21461 23.70963 -9.481185Q22.85619 -8.747760000000001 22.85619 -6.90753V0.0H18.29562V-14.881860000000001H22.85619V-12.401550000000002Q23.65629 -13.628370000000002 24.85644 -14.335125000000001Q26.05659 -15.04188 27.52344 -15.04188Z M28.803600000000003 -7.440930000000001Q28.803600000000003 -9.73455 29.81706 -11.481435000000001Q30.83052 -13.228320000000002 32.59074 -14.16177Q34.35096 -15.095220000000001 36.5379 -15.095220000000001Q38.72484 -15.095220000000001 40.485060000000004 -14.16177Q42.24528 -13.228320000000002 43.25874 -11.481435000000001Q44.2722 -9.73455 44.2722 -7.440930000000001Q44.2722 -5.147310000000001 43.245405 -3.4004250000000007Q42.21861 -1.6535400000000002 40.445054999999996 -0.7200900000000001Q38.6715 0.21336000000000002 36.48456 0.21336000000000002Q34.29762 0.21336000000000002 32.550735 -0.7200900000000001Q30.80385 -1.6535400000000002 29.803725 -3.3870900000000006Q28.803600000000003 -5.120640000000001 28.803600000000003 -7.440930000000001ZM39.63162 -7.440930000000001Q39.63162 -9.227820000000001 38.738175 -10.187940000000001Q37.84473 -11.148060000000001 36.5379 -11.148060000000001Q35.2044 -11.148060000000001 34.324290000000005 -10.201275Q33.44418 -9.25449 33.44418 -7.440930000000001Q33.44418 -5.65404 34.31095500000001 -4.69392Q35.177730000000004 -3.7338000000000005 36.48456 -3.7338000000000005Q37.79139 -3.7338000000000005 38.711505 -4.69392Q39.63162 -5.65404 39.63162 -7.440930000000001Z M58.88736 -18.722340000000003V-15.068550000000002H51.25974V-11.121390000000002H56.96712V-7.574280000000001H51.25974V0.0H46.69917V-18.722340000000003Z M60.380880000000005 -7.440930000000001Q60.380880000000005 -9.73455 61.39434 -11.481435000000001Q62.4078 -13.228320000000002 64.16802 -14.16177Q65.92824 -15.095220000000001 68.11518000000001 -15.095220000000001Q70.30212 -15.095220000000001 72.06234 -14.16177Q73.82256000000001 -13.228320000000002 74.83602 -11.481435000000001Q75.84948 -9.73455 75.84948 -7.440930000000001Q75.84948 -5.147310000000001 74.822685 -3.4004250000000007Q73.79589 -1.6535400000000002 72.022335 -0.7200900000000001Q70.24878000000001 0.21336000000000002 68.06184 0.21336000000000002Q65.8749 0.21336000000000002 64.128015 -0.7200900000000001Q62.381130000000006 -1.6535400000000002 61.381005 -3.3870900000000006Q60.380880000000005 -5.120640000000001 60.380880000000005 -7.440930000000001ZM71.2089 -7.440930000000001Q71.2089 -9.227820000000001 70.315455 -10.187940000000001Q69.42201 -11.148060000000001 68.11518000000001 -11.148060000000001Q66.78168000000001 -11.148060000000001 65.90157 -10.201275Q65.02146 -9.25449 65.02146 -7.440930000000001Q65.02146 -5.65404 65.88823500000001 -4.69392Q66.75501 -3.7338000000000005 68.06184 -3.7338000000000005Q69.36867000000001 -3.7338000000000005 70.288785 -4.69392Q71.2089 -5.65404 71.2089 -7.440930000000001Z M87.50427 -15.04188V-10.21461H86.25078Q84.54390000000001 -10.21461 83.69046 -9.481185Q82.83702000000001 -8.747760000000001 82.83702000000001 -6.90753V0.0H78.27645000000001V-14.881860000000001H82.83702000000001V-12.401550000000002Q83.63712000000001 -13.628370000000002 84.83727000000002 -14.335125000000001Q86.03742000000001 -15.04188 87.50427 -15.04188Z M99.93249 -12.774930000000001V-14.881860000000001H104.49306000000001V-0.026670000000000003Q104.49306000000001 2.02692 103.67962500000002 3.6937950000000006Q102.86619 5.360670000000001 101.19931500000001 6.347460000000001Q99.53244000000001 7.334250000000001 97.05213 7.334250000000001Q93.74505 7.334250000000001 91.69146 5.774055000000001Q89.63787 4.21386 89.34450000000001 1.5468600000000001H93.85173Q94.06509000000001 2.4003 94.86519000000001 2.893695Q95.66529000000001 3.38709 96.83877000000001 3.38709Q98.25228000000001 3.38709 99.09238500000001 2.573655Q99.93249 1.7602200000000001 99.93249 -0.026670000000000003V-2.1336000000000004Q99.26574000000001 -1.0934700000000002 98.09226000000001 -0.4400550000000001Q96.91878000000001 0.21336000000000002 95.34525000000001 0.21336000000000002Q93.50502 0.21336000000000002 92.01150000000001 -0.7334250000000001Q90.51798000000001 -1.6802100000000002 89.651205 -3.4270950000000004Q88.78443 -5.17398 88.78443 -7.467600000000001Q88.78443 -9.761220000000002 89.651205 -11.494770000000003Q90.51798000000001 -13.228320000000002 92.01150000000001 -14.16177Q93.50502 -15.095220000000001 95.34525000000001 -15.095220000000001Q96.91878000000001 -15.095220000000001 98.10559500000001 -14.45514Q99.29241 -13.81506 99.93249 -12.774930000000001ZM96.67875000000001 -11.121390000000002Q95.31858000000001 -11.121390000000002 94.371795 -10.147935Q93.42501 -9.17448 93.42501 -7.467600000000001Q93.42501 -5.760720000000001 94.371795 -4.760595Q95.31858000000001 -3.76047 96.67875000000001 -3.76047Q98.03892 -3.76047 98.985705 -4.747260000000001Q99.93249 -5.734050000000001 99.93249 -7.440930000000001Q99.93249 -9.147810000000002 98.985705 -10.134600000000002Q98.03892 -11.121390000000002 96.67875000000001 -11.121390000000002Z M121.74855000000001 -6.347460000000001H111.42726Q111.53394 -4.9606200000000005 112.320705 -4.227195Q113.10747 -3.4937700000000005 114.25428000000001 -3.4937700000000005Q115.96116 -3.4937700000000005 116.62791000000001 -4.93395H121.48185000000001Q121.10847000000001 -3.4671000000000003 120.13501500000001 -2.29362Q119.16156000000001 -1.1201400000000001 117.69471000000001 -0.45339000000000007Q116.22786 0.21336000000000002 114.41430000000001 0.21336000000000002Q112.22736 0.21336000000000002 110.52048 -0.7200900000000001Q108.81360000000001 -1.6535400000000002 107.85348 -3.3870900000000006Q106.89336 -5.120640000000001 106.89336 -7.440930000000001Q106.89336 -9.761220000000002 107.840145 -11.494770000000003Q108.78693000000001 -13.228320000000002 110.49381000000001 -14.16177Q112.20069000000001 -15.095220000000001 114.41430000000001 -15.095220000000001Q116.57457000000001 -15.095220000000001 118.25478000000001 -14.188440000000002Q119.93499000000001 -13.281660000000002 120.881775 -11.601450000000002Q121.82856000000001 -9.921240000000001 121.82856000000001 -7.680960000000001Q121.82856000000001 -7.0408800000000005 121.74855000000001 -6.347460000000001ZM117.16131000000001 -8.881110000000001Q117.16131000000001 -10.054590000000001 116.36121000000001 -10.74801Q115.56111000000001 -11.44143 114.36096 -11.44143Q113.21415 -11.44143 112.42738500000002 -10.77468Q111.64062000000001 -10.107930000000001 111.45393000000001 -8.881110000000001Z M143.13789000000003 -15.495270000000001H134.81685000000002V-11.814810000000001Q135.35025000000002 -12.401550000000002 136.31037000000003 -12.774930000000001Q137.27049000000002 -13.148310000000002 138.39063000000002 -13.148310000000002Q140.39088 -13.148310000000002 141.711045 -12.241530000000001Q143.03121000000002 -11.334750000000001 143.64462000000003 -9.894570000000002Q144.25803000000002 -8.45439 144.25803000000002 -6.77418Q144.25803000000002 -3.6537900000000003 142.49781000000002 -1.8268950000000002Q140.73759 0.0 137.53719 0.0Q135.40359 0.0 133.83006 -0.7334250000000001Q132.25653000000003 -1.4668500000000002 131.40309000000002 -2.77368Q130.54965 -4.08051 130.46964000000003 -5.78739H134.92353000000003Q135.08355 -4.9606200000000005 135.69696 -4.4138850000000005Q136.31037 -3.8671500000000005 137.37717 -3.8671500000000005Q138.63066 -3.8671500000000005 139.24407000000002 -4.667250000000001Q139.85748 -5.467350000000001 139.85748 -6.8008500000000005Q139.85748 -8.10768 139.2174 -8.801100000000002Q138.57732000000001 -9.494520000000001 137.3505 -9.494520000000001Q136.44372 -9.494520000000001 135.85698000000002 -9.054465Q135.27024 -8.614410000000001 135.08355 -7.8943200000000004H130.68300000000002V-19.49577H143.13789000000003Z" fill="#cccccc"/>
  </g>
</svg>