<?xml version="1.0" encoding="UTF-8"?>
<svg xmlns="http://www.w3.org/2000/svg" viewBox="0 0 300 300" width="300mm" height="300mm">
  <rect width="300" height="300" fill="#1a1a1a"/>
  <rect x="1" y="1" width="298" height="298" fill="none" stroke="#333333" stroke-width="0.5"/>
  <line x1="0" y1="8" x2="0" y2="0" stroke="#444444" stroke-width="1"/>
  <line x1="0" y1="0" x2="8" y2="0" stroke="#444444" stroke-width="1"/>
  <line x1="300" y1="8" x2="300" y2="0" stroke="#444444" stroke-width="1"/>
  <line x1="292" y1="0" x2="300" y2="0" stroke="#444444" stroke-width="1"/>
  <line x1="0" y1="292" x2="0" y2="300" stroke="#444444" stroke-width="1"/>
  <line x1="0" y1="300" x2="8" y2="300" stroke="#444444" stroke-width="1"/>
  <line x1="300" y1="292" x2="300" y2="300" stroke="#444444" stroke-width="1"/>
  <line x1="292" y1="300" x2="300" y2="300" stroke="#444444" stroke-width="1"/>
  <g transform="translate(152.660,280.000)">
    <path d="M6.78 -5.04H4.66V0.0H1.24V-14.040000000000001H6.78Q8.46 -14.040000000000001 9.620000000000001 -13.46Q10.78 -12.88 11.36 -11.86Q11.94 -10.84 11.94 -9.52Q11.94 -8.3 11.379999999999999 -7.290000000000001Q10.82 -6.28 9.66 -5.66Q8.5 -5.04 6.78 -5.04ZM8.46 -9.52Q8.46 -10.36 7.98 -10.82Q7.5 -11.28 6.5200000000000005 -11.28H4.66V-7.76H6.5200000000000005Q7.5 -7.76 7.98 -8.219999999999999Q8.46 -8.68 8.46 -9.52Z M20.64 -11.28V-7.66H19.7Q18.42 -7.66 17.78 -7.11Q17.14 -6.5600000000000005 17.14 -5.18V0.0H13.72V-11.16H17.14V-9.3Q17.740000000000002 -10.22 18.64 -10.75Q19.54 -11.28 20.64 -11.28Z M21.599999999999998 -5.58Q21.599999999999998 -7.3 22.36 -8.61Q23.119999999999997 -9.92 24.439999999999998 -10.620000000000001Q25.759999999999998 -11.32 27.4 -11.32Q29.04 -11.32 30.36 -10.620000000000001Q31.68 -9.92 32.44 -8.61Q33.2 -7.3 33.2 -5.58Q33.2 -3.86 32.43 -2.55Q31.66 -1.24 30.33 -0.54Q29.0 0.16 27.36 0.16Q25.72 0.16 24.409999999999997 -0.54Q23.099999999999998 -1.24 22.349999999999998 -2.54Q21.599999999999998 -3.84 21.599999999999998 -5.58ZM29.72 -5.58Q29.72 -6.92 29.049999999999997 -7.64Q28.38 -8.36 27.4 -8.36Q26.4 -8.36 25.74 -7.65Q25.08 -6.94 25.08 -5.58Q25.08 -4.24 25.729999999999997 -3.5200000000000005Q26.38 -2.8000000000000003 27.36 -2.8000000000000003Q28.34 -2.8000000000000003 29.03 -3.5200000000000005Q29.72 -4.24 29.72 -5.58Z M44.160000000000004 -14.040000000000001V-11.3H38.44V-8.34H42.72V-5.68H38.44V0.0H35.02V-14.040000000000001Z M45.28 -5.58Q45.28 -7.3 46.04 -8.61Q46.8 -9.92 48.12 -10.620000000000001Q49.44 -11.32 51.08 -11.32Q52.72 -11.32 54.04 -10.620000000000001Q55.36 -9.92 56.12 -8.61Q56.879999999999995 -7.3 56.879999999999995 -5.58Q56.879999999999995 -3.86 56.11 -2.55Q55.34 -1.24 54.010000000000005 -0.54Q52.68 0.16 51.04 0.16Q49.4 0.16 48.09 -0.54Q46.78 -1.24 46.03 -2.54Q45.28 -3.84 45.28 -5.58ZM53.4 -5.58Q53.4 -6.92 52.730000000000004 -7.64Q52.06 -8.36 51.08 -8.36Q50.08 -8.36 49.42 -7.65Q48.76 -6.94 48.76 -5.58Q48.76 -4.24 49.41 -3.5200000000000005Q50.06 -2.8000000000000003 51.04 -2.8000000000000003Q52.019999999999996 -2.8000000000000003 52.709999999999994 -3.5200000000000005Q53.4 -4.24 53.4 -5.58Z M65.62 -11.28V-7.66H64.68Q63.4 -7.66 62.760000000000005 -7.11Q62.120000000000005 -6.5600000000000005 62.120000000000005 -5.18V0.0H58.7V-11.16H62.120000000000005V-9.3Q62.72 -10.22 63.62 -10.75Q64.52 -11.28 65.62 -11.28Z M74.94 -9.58V-11.16H78.36V-0.02Q78.36 1.52 77.75 2.7700000000000005Q77.14 4.0200000000000005 75.89 4.76Q74.64 5.5 72.78 5.5Q70.3 5.5 68.75999999999999 4.33Q67.22 3.16 67.0 1.16H70.38Q70.53999999999999 1.8 71.13999999999999 2.17Q71.74 2.54 72.61999999999999 2.54Q73.67999999999999 2.54 74.31 1.9300000000000002Q74.94 1.32 74.94 -0.02V-1.6Q74.44 -0.8200000000000001 73.56 -0.33Q72.67999999999999 0.16 71.5 0.16Q70.11999999999999 0.16 69.0 -0.55Q67.88 -1.26 67.22999999999999 -2.57Q66.58 -3.88 66.58 -5.6000000000000005Q66.58 -7.32 67.22999999999999 -8.620000000000001Q67.88 -9.92 69.0 -10.620000000000001Q70.11999999999999 -11.32 71.5 -11.32Q72.67999999999999 -11.32 73.57 -10.84Q74.46 -10.36 74.94 -9.58ZM72.5 -8.34Q71.47999999999999 -8.34 70.77 -7.609999999999999Q70.06 -6.88 70.06 -5.6000000000000005Q70.06 -4.32 70.77 -3.5700000000000003Q71.47999999999999 -2.82 72.5 -2.82Q73.52 -2.82 74.22999999999999 -3.5599999999999996Q74.94 -4.3 74.94 -5.58Q74.94 -6.86 74.22999999999999 -7.6Q73.52 -8.34 72.5 -8.34Z M91.3 -4.76H83.55999999999999Q83.64 -3.72 84.22999999999999 -3.17Q84.82 -2.62 85.67999999999999 -2.62Q86.96 -2.62 87.46 -3.7H91.1Q90.82 -2.6 90.09 -1.72Q89.36 -0.84 88.25999999999999 -0.33999999999999997Q87.16 0.16 85.8 0.16Q84.16 0.16 82.88 -0.54Q81.6 -1.24 80.88 -2.54Q80.16 -3.84 80.16 -5.58Q80.16 -7.32 80.87 -8.620000000000001Q81.58 -9.92 82.86 -10.620000000000001Q84.14 -11.32 85.8 -11.32Q87.41999999999999 -11.32 88.67999999999999 -10.64Q89.94 -9.96 90.65 -8.700000000000001Q91.36 -7.44 91.36 -5.76Q91.36 -5.28 91.3 -4.76ZM87.86 -6.66Q87.86 -7.54 87.25999999999999 -8.06Q86.66 -8.58 85.75999999999999 -8.58Q84.89999999999999 -8.58 84.31 -8.08Q83.72 -7.58 83.58 -6.66Z M102.15999999999998 -14.94Q103.65999999999998 -14.94 104.72999999999999 -14.42Q105.79999999999998 -13.9 106.34999999999998 -13.0Q106.89999999999998 -12.1 106.89999999999998 -10.98Q106.89999999999998 -9.66 106.23999999999998 -8.83Q105.57999999999998 -8.0 104.69999999999999 -7.7V-7.62Q105.83999999999997 -7.24 106.49999999999997 -6.36Q107.15999999999998 -5.48 107.15999999999998 -4.1Q107.15999999999998 -2.86 106.58999999999997 -1.91Q106.01999999999998 -0.96 104.92999999999998 -0.42Q103.83999999999997 0.12 102.33999999999997 0.12Q99.93999999999998 0.12 98.50999999999999 -1.06Q97.07999999999998 -2.24 96.99999999999999 -4.62H100.31999999999998Q100.33999999999997 -3.74 100.81999999999998 -3.2300000000000004Q101.29999999999998 -2.72 102.21999999999998 -2.72Q102.99999999999999 -2.72 103.42999999999998 -3.17Q103.85999999999999 -3.62 103.85999999999999 -4.36Q103.85999999999999 -5.32 103.24999999999999 -5.75Q102.63999999999999 -6.18 101.29999999999998 -6.18H100.65999999999998V-8.96H101.29999999999998Q102.31999999999998 -8.96 102.94999999999999 -9.31Q103.57999999999998 -9.66 103.57999999999998 -10.56Q103.57999999999998 -11.28 103.17999999999998 -11.68Q102.77999999999999 -12.08 102.07999999999998 -12.08Q101.31999999999998 -12.08 100.94999999999999 -11.620000000000001Q100.57999999999998 -11.16 100.51999999999998 -10.48H97.17999999999998Q97.25999999999998 -12.620000000000001 98.57999999999998 -13.780000000000001Q99.89999999999998 -14.94 102.15999999999998 -14.94Z M114.77999999999997 -14.9Q117.73999999999998 -14.9 119.06999999999998 -12.92Q120.39999999999998 -10.94 120.39999999999998 -7.5Q120.39999999999998 -4.0200000000000005 119.06999999999998 -2.04Q117.73999999999998 -0.06 114.77999999999997 -0.06Q111.81999999999998 -0.06 110.48999999999998 -2.04Q109.15999999999998 -4.0200000000000005 109.15999999999998 -7.5Q109.15999999999998 -10.94 110.48999999999998 -12.92Q111.81999999999998 -14.9 114.77999999999997 -14.9ZM114.77999999999997 -11.700000000000001Q113.39999999999998 -11.700000000000001 112.95999999999998 -10.61Q112.51999999999998 -9.52 112.51999999999998 -7.5Q112.51999999999998 -6.140000000000001 112.67999999999998 -5.25Q112.83999999999997 -4.36 113.32999999999998 -3.8100000000000005Q113.81999999999998 -3.2600000000000002 114.77999999999997 -3.2600000000000002Q115.73999999999998 -3.2600000000000002 116.22999999999998 -3.8100000000000005Q116.71999999999997 -4.36 116.87999999999997 -5.25Q117.03999999999998 -6.140000000000001 117.03999999999998 -7.5Q117.03999999999998 -9.52 116.59999999999998 -10.61Q116.15999999999998 -11.700000000000001 114.77999999999997 -11.700000000000001Z M127.81999999999998 -14.9Q130.77999999999997 -14.9 132.10999999999999 -12.92Q133.44 -10.94 133.44 -7.5Q133.44 -4.0200000000000005 132.10999999999999 -2.04Q130.77999999999997 -0.06 127.81999999999998 -0.06Q124.85999999999999 -0.06 123.52999999999999 -2.04Q122.19999999999999 -4.0200000000000005 122.19999999999999 -7.5Q122.19999999999999 -10.94 123.52999999999999 -12.92Q124.85999999999999 -14.9 127.81999999999998 -14.9ZM127.81999999999998 -11.700000000000001Q126.43999999999998 -11.700000000000001 125.99999999999999 -10.61Q125.55999999999999 -9.52 125.55999999999999 -7.5Q125.55999999999999 -6.140000000000001 125.71999999999998 -5.25Q125.87999999999998 -4.36 126.36999999999998 -3.8100000000000005Q126.85999999999999 -3.2600000000000002 127.81999999999998 -3.2600000000000002Q128.77999999999997 -3.2600000000000002 129.26999999999998 -3.8100000000000005Q129.76 -4.36 129.92 -5.25Q130.07999999999998 -6.140000000000001 130.07999999999998 -7.5Q130.07999999999998 -9.52 129.64 -10.61Q129.2 -11.700000000000001 127.81999999999998 -11.700000000000001Z" fill="#cccccc"/>
  </g>
</svg>